<?xml version="1.0" encoding="utf-8"?>
<!-- Generator: Adobe Illustrator 16.0.0, SVG Export Plug-In . SVG Version: 6.00 Build 0)  -->
<!DOCTYPE svg PUBLIC "-//W3C//DTD SVG 1.1//EN" "http://www.w3.org/Graphics/SVG/1.1/DTD/svg11.dtd">
<svg version="1.1" id="Layer_1" xmlns="http://www.w3.org/2000/svg" xmlns:xlink="http://www.w3.org/1999/xlink" x="0px" y="0px"
	 width="472px" height="310px" viewBox="0 0 472 310" enable-background="new 0 0 472 310" xml:space="preserve">
<polygon fill="#A6CE38" points="107.479,201.806 107.479,201.806 107.479,157.627 107.479,113.448 107.479,69.269 56.725,69.269 
	56.725,113.448 56.725,157.627 56.725,201.806 107.479,245.984 208.986,245.984 158.232,201.806 "/>
<polygon fill="#A6CE38" points="234.362,69.269 234.362,113.448 234.362,157.627 234.362,201.806 234.362,245.984 285.116,245.984 
	285.116,201.806 285.116,157.627 285.116,113.448 285.116,69.269 "/>
<polygon fill="#A6CE38" points="411.999,201.806 361.247,201.806 361.247,113.448 361.247,69.269 361.247,25.09 310.492,25.09 
	310.492,69.269 310.492,113.448 310.492,201.806 361.247,245.984 411.999,245.984 "/>
<polygon fill="#009345" points="158.232,69.269 158.232,113.448 158.232,157.627 158.232,201.806 208.986,245.984 208.986,201.806 
	208.986,157.627 208.986,113.448 208.986,69.269 "/>
<rect x="234.362" y="3" fill="#009345" width="50.754" height="44.179"/>
<polygon fill="#009345" points="386.622,69.269 310.492,69.269 361.246,113.448 386.622,113.448 412,113.448 412,69.269 "/>
<path fill="#808184" d="M68.349,279.422c-2.965,0-4.174,0.937-4.174,3.784c0,3.784,3.003,3.472,7.567,4.175
	c3.472,0.545,6.787,1.949,6.787,7.957c0,6.944-3.003,9.869-10.22,9.869c-7.489,0-9.869-3.628-9.869-8.464h5.422
	c0.117,2.301,1.132,3.549,4.565,3.549c3.237,0,4.72-1.364,4.72-4.758c0-3.551-4.213-3.551-7.412-3.98
	c-3.394-0.428-6.982-2.106-6.982-8.308c0-5.618,3.432-8.544,9.596-8.544c5.421,0,9.011,1.989,9.518,7.997h-5.422
	C72.289,280.164,70.962,279.422,68.349,279.422"/>
<polygon fill="#808184" points="98.382,279.772 92.18,279.772 92.18,304.896 86.835,304.896 86.835,279.772 80.594,279.772 
	80.594,274.975 98.382,274.975 "/>
<path fill="#808184" d="M118.353,304.895h-5.538l-1.522-5.305h-7.685l-1.56,5.305h-5.54l8.309-29.997h5.345L118.353,304.895z
	 M109.927,294.323l-2.496-11.117l-2.497,11.117H109.927z"/>
<path fill="#808184" d="M134.771,304.896l-5.968-10.572h-1.989v10.572h-5.384v-30.038h7.569c7.255,0,10.649,2.652,10.649,9.013v1.56
	c0,4.446-1.561,6.865-5.188,8.036l6.593,11.43H134.771z M128.999,289.37c3.901,0,4.993-1.365,4.993-4.213v-1.015
	c0-2.848-0.741-4.33-4.915-4.33h-2.302v9.558H128.999z"/>
<polygon fill="#808184" points="159.501,279.772 153.299,279.772 153.299,304.896 147.955,304.896 147.955,279.772 141.713,279.772 
	141.713,274.975 159.501,274.975 "/>
<path fill="#808184" d="M176.701,274.897h5.383v21.104c0,6.203-3.784,9.168-10.104,9.168c-6.319,0-9.83-2.965-9.83-9.168v-21.104
	h5.384v20.831c0,2.847,1.248,4.681,4.446,4.681c3.199,0,4.721-1.834,4.721-4.681V274.897z"/>
<path fill="#808184" d="M194.954,274.857c7.255,0,10.649,2.613,10.649,8.973v2.77c0,6.203-3.511,9.089-10.649,9.089h-2.068v9.207
	h-5.5v-30.038H194.954z M194.954,290.501c3.9,0,5.188-1.327,5.188-4.173v-2.225c0-2.848-0.937-4.331-5.109-4.331h-2.185v10.729
	H194.954z"/>
<rect x="218.744" y="274.897" fill="#808184" width="5.424" height="30.037"/>
<polygon fill="#808184" points="240.354,297.796 234.387,285.702 235.01,294.285 235.01,304.895 229.627,304.895 229.627,274.857 
	234.815,274.857 240.939,288.159 247.103,274.857 252.292,274.857 252.292,304.895 246.908,304.895 246.908,294.285 
	247.533,285.702 241.564,297.796 "/>
<polygon fill="#808184" points="268.437,297.796 262.467,285.702 263.092,294.285 263.092,304.895 257.709,304.895 257.709,274.857 
	262.896,274.857 269.021,288.159 275.185,274.857 280.373,274.857 280.373,304.895 274.99,304.895 274.99,294.285 275.614,285.702 
	269.646,297.796 "/>
<polygon fill="#808184" points="303.072,274.857 303.072,279.539 291.175,279.539 291.175,287.263 301.317,287.263 301.317,292.1 
	291.175,292.1 291.175,300.019 303.618,300.019 303.618,304.935 285.791,304.935 285.791,274.857 "/>
<path fill="#808184" d="M321.13,304.896l-5.969-10.572h-1.989v10.572h-5.383v-30.038h7.567c7.256,0,10.65,2.652,10.65,9.013v1.56
	c0,4.446-1.562,6.865-5.188,8.036l6.592,11.43H321.13z M315.356,289.37c3.901,0,4.993-1.365,4.993-4.213v-1.015
	c0-2.848-0.741-4.33-4.914-4.33h-2.303v9.558H315.356z"/>
<path fill="#808184" d="M339.853,279.422c-2.966,0-4.175,0.937-4.175,3.784c0,3.784,3.003,3.472,7.568,4.175
	c3.471,0.545,6.787,1.949,6.787,7.957c0,6.944-3.004,9.869-10.22,9.869c-7.49,0-9.87-3.628-9.87-8.464h5.422
	c0.117,2.301,1.132,3.549,4.564,3.549c3.238,0,4.72-1.364,4.72-4.758c0-3.551-4.213-3.551-7.412-3.98
	c-3.393-0.428-6.981-2.106-6.981-8.308c0-5.618,3.433-8.544,9.597-8.544c5.421,0,9.011,1.989,9.519,7.997h-5.423
	C343.791,280.164,342.466,279.422,339.853,279.422"/>
<rect x="354.515" y="274.897" fill="#808184" width="5.423" height="30.037"/>
<path fill="#808184" d="M364.968,296.196v-12.718c0-6.358,2.77-8.971,10.026-8.971c7.254,0,10.258,2.612,10.258,8.971v12.718
	c0,6.202-3.12,8.972-10.258,8.972C367.854,305.168,364.968,302.398,364.968,296.196 M379.869,295.923v-12.17
	c0-2.731-0.702-4.486-4.875-4.486c-3.901,0-4.644,1.755-4.644,4.486v12.17c0,2.848,0.742,4.487,4.644,4.487
	C378.894,300.41,379.869,298.771,379.869,295.923"/>
<polygon fill="#808184" points="409.278,304.896 404.051,304.896 395.234,285.858 395.704,297.25 395.704,304.896 390.358,304.896 
	390.358,274.897 395.704,274.897 404.52,294.676 403.935,281.996 403.935,274.897 409.278,274.897 "/>
</svg>
