<?xml version="1.0" encoding="utf-8"?>
<!-- Generator: Adobe Illustrator 16.0.0, SVG Export Plug-In . SVG Version: 6.00 Build 0)  -->
<!DOCTYPE svg PUBLIC "-//W3C//DTD SVG 1.1//EN" "http://www.w3.org/Graphics/SVG/1.1/DTD/svg11.dtd">
<svg version="1.1" id="Layer_1" xmlns="http://www.w3.org/2000/svg" xmlns:xlink="http://www.w3.org/1999/xlink" x="0px" y="0px"
	 width="472px" height="310px" viewBox="0 0 472 310" enable-background="new 0 0 472 310" xml:space="preserve">
<polygon fill="#A6CE38" points="116.398,200.653 116.398,200.653 116.398,159.487 116.398,118.323 116.398,77.157 69.107,77.157 
	69.107,118.323 69.107,159.487 69.107,200.653 116.398,241.818 210.981,241.818 163.689,200.653 "/>
<polygon fill="#A6CE38" points="234.626,77.157 234.626,118.323 234.626,159.487 234.626,200.653 234.626,241.818 281.916,241.818 
	281.916,200.653 281.916,159.487 281.916,118.323 281.916,77.157 "/>
<polygon fill="#A6CE38" points="400.145,200.653 352.854,200.653 352.854,118.323 352.854,77.157 352.854,35.993 305.562,35.993 
	305.562,77.157 305.562,118.323 305.562,200.653 352.854,241.818 400.145,241.818 "/>
<polygon fill="#009345" points="163.689,77.157 163.689,118.323 163.689,159.487 163.689,200.653 210.981,241.818 210.981,200.653 
	210.981,159.487 210.981,118.323 210.981,77.157 "/>
<rect x="234.626" y="15.409" fill="#009345" width="47.29" height="41.165"/>
<polygon fill="#009345" points="376.5,77.157 305.562,77.157 352.854,118.323 376.5,118.323 400.146,118.323 400.146,77.157 "/>
<path fill="#808184" d="M79.938,272.975c-2.763,0-3.889,0.872-3.889,3.524c0,3.527,2.798,3.235,7.051,3.891
	c3.235,0.509,6.325,1.817,6.325,7.415c0,6.47-2.799,9.195-9.523,9.195c-6.979,0-9.196-3.381-9.196-7.888h5.052
	c0.109,2.145,1.054,3.308,4.253,3.308c3.017,0,4.397-1.271,4.397-4.434c0-3.308-3.925-3.308-6.905-3.707
	c-3.163-0.401-6.506-1.964-6.506-7.742c0-5.235,3.198-7.961,8.941-7.961c5.052,0,8.396,1.854,8.87,7.452h-5.053
	C83.609,273.665,82.374,272.975,79.938,272.975"/>
<polygon fill="#808184" points="107.923,273.301 102.144,273.301 102.144,296.709 97.164,296.709 97.164,273.301 91.348,273.301 
	91.348,268.83 107.923,268.83 "/>
<path fill="#808184" d="M126.53,296.708h-5.161l-1.418-4.942h-7.161l-1.454,4.942h-5.162l7.742-27.95h4.98L126.53,296.708z
	 M118.68,286.859l-2.327-10.36l-2.326,10.36H118.68z"/>
<path fill="#808184" d="M141.829,296.709l-5.56-9.85h-1.854v9.85h-5.017v-27.988h7.053c6.76,0,9.923,2.473,9.923,8.398v1.453
	c0,4.144-1.454,6.396-4.835,7.487l6.144,10.649H141.829z M136.451,282.242c3.634,0,4.652-1.271,4.652-3.925v-0.945
	c0-2.653-0.691-4.034-4.579-4.034h-2.146v8.904H136.451z"/>
<polygon fill="#808184" points="164.872,273.301 159.093,273.301 159.093,296.709 154.113,296.709 154.113,273.301 148.297,273.301 
	148.297,268.83 164.872,268.83 "/>
<path fill="#808184" d="M180.899,268.758h5.016v19.664c0,5.779-3.526,8.542-9.415,8.542c-5.888,0-9.16-2.763-9.16-8.542v-19.664
	h5.017v19.409c0,2.654,1.163,4.362,4.143,4.362c2.981,0,4.399-1.708,4.399-4.362V268.758z"/>
<path fill="#808184" d="M197.907,268.721c6.759,0,9.922,2.436,9.922,8.36v2.581c0,5.779-3.271,8.47-9.922,8.47h-1.927v8.577h-5.126
	v-27.988H197.907z M197.907,283.297c3.635,0,4.833-1.236,4.833-3.889v-2.072c0-2.653-0.871-4.035-4.761-4.035h-2.035v9.996H197.907z
	"/>
<rect x="220.074" y="268.758" fill="#808184" width="5.053" height="27.988"/>
<polygon fill="#808184" points="240.209,290.095 234.648,278.826 235.229,286.823 235.229,296.708 230.213,296.708 230.213,268.721 
	235.048,268.721 240.754,281.116 246.498,268.721 251.332,268.721 251.332,296.708 246.316,296.708 246.316,286.823 
	246.897,278.826 241.337,290.095 "/>
<polygon fill="#808184" points="266.376,290.095 260.813,278.826 261.396,286.823 261.396,296.708 256.38,296.708 256.38,268.721 
	261.214,268.721 266.921,281.116 272.664,268.721 277.498,268.721 277.498,296.708 272.482,296.708 272.482,286.823 
	273.064,278.826 267.503,290.095 "/>
<polygon fill="#808184" points="298.649,268.721 298.649,273.083 287.562,273.083 287.562,280.28 297.013,280.28 297.013,284.787 
	287.562,284.787 287.562,292.166 299.158,292.166 299.158,296.746 282.547,296.746 282.547,268.721 "/>
<path fill="#808184" d="M315.475,296.709l-5.561-9.85h-1.854v9.85h-5.016v-27.988h7.051c6.76,0,9.924,2.473,9.924,8.398v1.453
	c0,4.144-1.454,6.396-4.835,7.487l6.144,10.649H315.475z M310.095,282.242c3.635,0,4.652-1.271,4.652-3.925v-0.945
	c0-2.653-0.69-4.034-4.579-4.034h-2.145v8.904H310.095z"/>
<path fill="#808184" d="M332.92,272.975c-2.763,0-3.89,0.872-3.89,3.524c0,3.527,2.798,3.235,7.051,3.891
	c3.235,0.509,6.324,1.817,6.324,7.415c0,6.47-2.798,9.195-9.522,9.195c-6.979,0-9.195-3.381-9.195-7.888h5.051
	c0.11,2.145,1.055,3.308,4.254,3.308c3.017,0,4.397-1.271,4.397-4.434c0-3.308-3.925-3.308-6.907-3.707
	c-3.16-0.401-6.505-1.964-6.505-7.742c0-5.235,3.198-7.961,8.942-7.961c5.051,0,8.396,1.854,8.869,7.452h-5.053
	C336.59,273.665,335.354,272.975,332.92,272.975"/>
<rect x="346.582" y="268.758" fill="#808184" width="5.052" height="27.988"/>
<path fill="#808184" d="M356.322,288.604v-11.85c0-5.926,2.58-8.359,9.342-8.359c6.76,0,9.559,2.434,9.559,8.359v11.85
	c0,5.779-2.907,8.359-9.559,8.359C359.011,296.963,356.322,294.383,356.322,288.604 M370.207,288.35v-11.341
	c0-2.545-0.654-4.18-4.543-4.18c-3.635,0-4.327,1.635-4.327,4.18v11.341c0,2.652,0.692,4.181,4.327,4.181
	C369.298,292.53,370.207,291.002,370.207,288.35"/>
<polygon fill="#808184" points="397.609,296.709 392.739,296.709 384.523,278.972 384.961,289.586 384.961,296.709 379.979,296.709 
	379.979,268.758 384.961,268.758 393.174,287.186 392.631,275.373 392.631,268.758 397.609,268.758 "/>
</svg>
