<?xml version="1.0" encoding="utf-8"?>
<!-- Generator: Adobe Illustrator 16.0.0, SVG Export Plug-In . SVG Version: 6.00 Build 0)  -->
<!DOCTYPE svg PUBLIC "-//W3C//DTD SVG 1.1//EN" "http://www.w3.org/Graphics/SVG/1.1/DTD/svg11.dtd">
<svg version="1.1" id="Layer_1" xmlns="http://www.w3.org/2000/svg" xmlns:xlink="http://www.w3.org/1999/xlink" x="0px" y="0px"
	 width="472px" height="310px" viewBox="0 0 472 310" enable-background="new 0 0 472 310" xml:space="preserve">
<polygon fill="#A6CE38" points="116.694,199.451 116.694,199.451 116.694,159.054 116.694,118.658 116.694,78.26 70.285,78.26 
	70.285,118.658 70.285,159.054 70.285,199.451 116.694,239.849 209.512,239.849 163.103,199.451 "/>
<polygon fill="#A6CE38" points="232.716,78.26 232.716,118.658 232.716,159.054 232.716,199.451 232.716,239.849 279.123,239.849 
	279.123,199.451 279.123,159.054 279.123,118.658 279.123,78.26 "/>
<polygon fill="#A6CE38" points="395.145,199.451 348.737,199.451 348.737,118.658 348.737,78.26 348.737,37.864 302.328,37.864 
	302.328,78.26 302.328,118.658 302.328,199.451 348.737,239.849 395.145,239.849 "/>
<polygon fill="#009345" points="163.103,78.26 163.103,118.658 163.103,159.054 163.103,199.451 209.512,239.849 209.512,199.451 
	209.512,159.054 209.512,118.658 209.512,78.26 "/>
<rect x="232.716" y="17.665" fill="#009345" width="46.407" height="40.397"/>
<polygon fill="#009345" points="371.941,78.26 302.328,78.26 348.737,118.658 371.941,118.658 395.146,118.658 395.146,78.26 "/>
<path fill="#808184" d="M80.914,270.423c-2.711,0-3.816,0.856-3.816,3.459c0,3.461,2.746,3.175,6.919,3.817
	c3.175,0.5,6.207,1.784,6.207,7.277c0,6.349-2.747,9.023-9.346,9.023c-6.849,0-9.024-3.317-9.024-7.74h4.958
	c0.107,2.104,1.035,3.246,4.173,3.246c2.96,0,4.315-1.248,4.315-4.352c0-3.246-3.852-3.246-6.776-3.638
	c-3.104-0.394-6.385-1.927-6.385-7.598c0-5.138,3.139-7.812,8.774-7.812c4.958,0,8.24,1.819,8.704,7.313h-4.959
	C84.517,271.101,83.304,270.423,80.914,270.423"/>
<polygon fill="#808184" points="108.377,270.743 102.705,270.743 102.705,293.715 97.818,293.715 97.818,270.743 92.111,270.743 
	92.111,266.355 108.377,266.355 "/>
<path fill="#808184" d="M126.637,293.714h-5.064l-1.392-4.851h-7.027l-1.427,4.851h-5.065l7.598-27.429h4.887L126.637,293.714z
	 M118.933,284.049l-2.283-10.167l-2.282,10.167H118.933z"/>
<path fill="#808184" d="M141.65,293.715l-5.457-9.666h-1.82v9.666h-4.923v-27.467h6.921c6.634,0,9.738,2.427,9.738,8.242v1.426
	c0,4.066-1.427,6.277-4.745,7.348l6.029,10.451H141.65z M136.372,279.518c3.566,0,4.565-1.248,4.565-3.852v-0.928
	c0-2.604-0.678-3.959-4.494-3.959h-2.106v8.738H136.372z"/>
<polygon fill="#808184" points="164.263,270.743 158.592,270.743 158.592,293.715 153.705,293.715 153.705,270.743 147.998,270.743 
	147.998,266.355 164.263,266.355 "/>
<path fill="#808184" d="M179.991,266.285h4.922v19.297c0,5.672-3.46,8.383-9.239,8.383c-5.778,0-8.988-2.711-8.988-8.383v-19.297
	h4.923v19.047c0,2.604,1.141,4.28,4.065,4.28c2.925,0,4.317-1.676,4.317-4.28V266.285z"/>
<path fill="#808184" d="M196.681,266.248c6.633,0,9.737,2.391,9.737,8.205v2.532c0,5.672-3.21,8.312-9.737,8.312h-1.891v8.418
	h-5.031v-27.467H196.681z M196.681,280.553c3.567,0,4.742-1.213,4.742-3.816v-2.033c0-2.604-0.854-3.96-4.672-3.96h-1.997v9.81
	H196.681z"/>
<rect x="218.435" y="266.285" fill="#808184" width="4.958" height="27.466"/>
<polygon fill="#808184" points="238.194,287.224 232.737,276.165 233.308,284.014 233.308,293.714 228.385,293.714 228.385,266.248 
	233.129,266.248 238.729,278.413 244.365,266.248 249.109,266.248 249.109,293.714 244.188,293.714 244.188,284.014 
	244.758,276.165 239.301,287.224 "/>
<polygon fill="#808184" points="263.873,287.224 258.414,276.165 258.985,284.014 258.985,293.714 254.063,293.714 254.063,266.248 
	258.807,266.248 264.407,278.413 270.043,266.248 274.787,266.248 274.787,293.714 269.865,293.714 269.865,284.014 
	270.437,276.165 264.979,287.224 "/>
<polygon fill="#808184" points="295.544,266.248 295.544,270.529 284.664,270.529 284.664,277.593 293.938,277.593 293.938,282.015 
	284.664,282.015 284.664,289.256 296.043,289.256 296.043,293.751 279.742,293.751 279.742,266.248 "/>
<path fill="#808184" d="M312.055,293.715l-5.457-9.666h-1.819v9.666h-4.922v-27.467h6.919c6.634,0,9.738,2.427,9.738,8.242v1.426
	c0,4.066-1.427,6.277-4.744,7.348l6.028,10.451H312.055z M306.775,279.518c3.567,0,4.565-1.248,4.565-3.852v-0.928
	c0-2.604-0.678-3.959-4.493-3.959h-2.104v8.738H306.775z"/>
<path fill="#808184" d="M329.175,270.423c-2.711,0-3.817,0.856-3.817,3.459c0,3.461,2.746,3.175,6.919,3.817
	c3.176,0.5,6.206,1.784,6.206,7.277c0,6.349-2.745,9.023-9.344,9.023c-6.849,0-9.024-3.317-9.024-7.74h4.957
	c0.108,2.104,1.035,3.246,4.174,3.246c2.961,0,4.315-1.248,4.315-4.352c0-3.246-3.852-3.246-6.778-3.638
	c-3.101-0.394-6.383-1.927-6.383-7.598c0-5.138,3.139-7.812,8.775-7.812c4.956,0,8.238,1.819,8.703,7.313h-4.958
	C332.776,271.101,331.563,270.423,329.175,270.423"/>
<rect x="342.582" y="266.285" fill="#808184" width="4.957" height="27.466"/>
<path fill="#808184" d="M352.141,285.76v-11.628c0-5.815,2.531-8.203,9.167-8.203c6.634,0,9.38,2.388,9.38,8.203v11.628
	c0,5.672-2.853,8.204-9.38,8.204C354.778,293.964,352.141,291.432,352.141,285.76 M365.766,285.511v-11.129
	c0-2.497-0.642-4.102-4.458-4.102c-3.567,0-4.246,1.604-4.246,4.102v11.129c0,2.604,0.679,4.103,4.246,4.103
	C364.874,289.613,365.766,288.114,365.766,285.511"/>
<polygon fill="#808184" points="392.656,293.715 387.878,293.715 379.815,276.309 380.244,286.725 380.244,293.715 375.355,293.715 
	375.355,266.285 380.244,266.285 388.304,284.369 387.771,272.776 387.771,266.285 392.656,266.285 "/>
</svg>
