<?xml version="1.0" encoding="utf-8"?>
<!-- Generator: Adobe Illustrator 16.0.0, SVG Export Plug-In . SVG Version: 6.00 Build 0)  -->
<!DOCTYPE svg PUBLIC "-//W3C//DTD SVG 1.1//EN" "http://www.w3.org/Graphics/SVG/1.1/DTD/svg11.dtd">
<svg version="1.1" id="Layer_1" xmlns="http://www.w3.org/2000/svg" xmlns:xlink="http://www.w3.org/1999/xlink" x="0px" y="0px"
	 width="472px" height="310px" viewBox="0 0 472 310" enable-background="new 0 0 472 310" xml:space="preserve">
<polygon fill="#A6CE38" points="118.694,199.451 118.694,199.451 118.694,159.054 118.694,118.658 118.694,78.26 72.285,78.26 
	72.285,118.658 72.285,159.054 72.285,199.451 118.694,239.849 211.512,239.849 165.103,199.451 "/>
<polygon fill="#A6CE38" points="234.716,78.26 234.716,118.658 234.716,159.054 234.716,199.451 234.716,239.849 281.123,239.849 
	281.123,199.451 281.123,159.054 281.123,118.658 281.123,78.26 "/>
<polygon fill="#A6CE38" points="397.145,199.451 350.737,199.451 350.737,118.658 350.737,78.26 350.737,37.864 304.328,37.864 
	304.328,78.26 304.328,118.658 304.328,199.451 350.737,239.849 397.145,239.849 "/>
<polygon fill="#009345" points="165.103,78.26 165.103,118.658 165.103,159.054 165.103,199.451 211.512,239.849 211.512,199.451 
	211.512,159.054 211.512,118.658 211.512,78.26 "/>
<rect x="234.716" y="17.665" fill="#009345" width="46.407" height="40.397"/>
<polygon fill="#009345" points="373.941,78.26 304.328,78.26 350.737,118.658 373.941,118.658 397.146,118.658 397.146,78.26 "/>
<path fill="#808184" d="M82.914,270.423c-2.711,0-3.816,0.856-3.816,3.459c0,3.461,2.746,3.175,6.919,3.817
	c3.175,0.5,6.207,1.784,6.207,7.277c0,6.349-2.747,9.023-9.346,9.023c-6.849,0-9.024-3.317-9.024-7.74h4.958
	c0.107,2.104,1.035,3.246,4.173,3.246c2.96,0,4.315-1.248,4.315-4.352c0-3.246-3.852-3.246-6.776-3.638
	c-3.104-0.394-6.385-1.927-6.385-7.598c0-5.138,3.139-7.812,8.774-7.812c4.958,0,8.24,1.819,8.704,7.313h-4.959
	C86.517,271.101,85.304,270.423,82.914,270.423"/>
<polygon fill="#808184" points="110.377,270.743 104.705,270.743 104.705,293.715 99.818,293.715 99.818,270.743 94.111,270.743 
	94.111,266.355 110.377,266.355 "/>
<path fill="#808184" d="M128.637,293.714h-5.064l-1.392-4.851h-7.027l-1.427,4.851h-5.065l7.598-27.429h4.887L128.637,293.714z
	 M120.933,284.049l-2.283-10.167l-2.282,10.167H120.933z"/>
<path fill="#808184" d="M143.65,293.715l-5.457-9.666h-1.82v9.666h-4.923v-27.467h6.921c6.634,0,9.738,2.427,9.738,8.242v1.426
	c0,4.066-1.427,6.277-4.745,7.348l6.029,10.451H143.65z M138.372,279.518c3.566,0,4.565-1.248,4.565-3.852v-0.928
	c0-2.604-0.678-3.959-4.494-3.959h-2.106v8.738H138.372z"/>
<polygon fill="#808184" points="166.263,270.743 160.592,270.743 160.592,293.715 155.705,293.715 155.705,270.743 149.998,270.743 
	149.998,266.355 166.263,266.355 "/>
<path fill="#808184" d="M181.991,266.285h4.922v19.297c0,5.672-3.46,8.383-9.239,8.383c-5.778,0-8.988-2.711-8.988-8.383v-19.297
	h4.923v19.047c0,2.604,1.141,4.28,4.065,4.28c2.925,0,4.317-1.676,4.317-4.28V266.285z"/>
<path fill="#808184" d="M198.681,266.248c6.633,0,9.737,2.391,9.737,8.205v2.532c0,5.672-3.21,8.312-9.737,8.312h-1.891v8.418
	h-5.031v-27.467H198.681z M198.681,280.553c3.567,0,4.742-1.213,4.742-3.816v-2.033c0-2.604-0.854-3.96-4.672-3.96h-1.997v9.81
	H198.681z"/>
<rect x="220.435" y="266.285" fill="#808184" width="4.958" height="27.466"/>
<polygon fill="#808184" points="240.194,287.224 234.737,276.165 235.308,284.014 235.308,293.714 230.385,293.714 230.385,266.248 
	235.129,266.248 240.729,278.413 246.365,266.248 251.109,266.248 251.109,293.714 246.188,293.714 246.188,284.014 
	246.758,276.165 241.301,287.224 "/>
<polygon fill="#808184" points="265.873,287.224 260.414,276.165 260.985,284.014 260.985,293.714 256.063,293.714 256.063,266.248 
	260.807,266.248 266.407,278.413 272.043,266.248 276.787,266.248 276.787,293.714 271.865,293.714 271.865,284.014 
	272.437,276.165 266.979,287.224 "/>
<polygon fill="#808184" points="297.544,266.248 297.544,270.529 286.664,270.529 286.664,277.593 295.938,277.593 295.938,282.015 
	286.664,282.015 286.664,289.256 298.043,289.256 298.043,293.751 281.742,293.751 281.742,266.248 "/>
<path fill="#808184" d="M314.055,293.715l-5.457-9.666h-1.819v9.666h-4.922v-27.467h6.919c6.634,0,9.738,2.427,9.738,8.242v1.426
	c0,4.066-1.427,6.277-4.744,7.348l6.028,10.451H314.055z M308.775,279.518c3.567,0,4.565-1.248,4.565-3.852v-0.928
	c0-2.604-0.678-3.959-4.493-3.959h-2.104v8.738H308.775z"/>
<path fill="#808184" d="M331.175,270.423c-2.711,0-3.817,0.856-3.817,3.459c0,3.461,2.746,3.175,6.919,3.817
	c3.176,0.5,6.206,1.784,6.206,7.277c0,6.349-2.745,9.023-9.344,9.023c-6.849,0-9.024-3.317-9.024-7.74h4.957
	c0.108,2.104,1.035,3.246,4.174,3.246c2.961,0,4.315-1.248,4.315-4.352c0-3.246-3.852-3.246-6.778-3.638
	c-3.101-0.394-6.383-1.927-6.383-7.598c0-5.138,3.139-7.812,8.775-7.812c4.956,0,8.238,1.819,8.703,7.313h-4.958
	C334.776,271.101,333.563,270.423,331.175,270.423"/>
<rect x="344.582" y="266.285" fill="#808184" width="4.957" height="27.466"/>
<path fill="#808184" d="M354.141,285.76v-11.628c0-5.815,2.531-8.203,9.167-8.203c6.634,0,9.38,2.388,9.38,8.203v11.628
	c0,5.672-2.853,8.204-9.38,8.204C356.778,293.964,354.141,291.432,354.141,285.76 M367.766,285.511v-11.129
	c0-2.497-0.642-4.102-4.458-4.102c-3.567,0-4.246,1.604-4.246,4.102v11.129c0,2.604,0.679,4.103,4.246,4.103
	C366.874,289.613,367.766,288.114,367.766,285.511"/>
<polygon fill="#808184" points="394.656,293.715 389.878,293.715 381.815,276.309 382.244,286.725 382.244,293.715 377.355,293.715 
	377.355,266.285 382.244,266.285 390.304,284.369 389.771,272.776 389.771,266.285 394.656,266.285 "/>
</svg>
