<?xml version="1.0" encoding="utf-8"?>
<!-- Generator: Adobe Illustrator 16.0.0, SVG Export Plug-In . SVG Version: 6.00 Build 0)  -->
<!DOCTYPE svg PUBLIC "-//W3C//DTD SVG 1.1//EN" "http://www.w3.org/Graphics/SVG/1.1/DTD/svg11.dtd">
<svg version="1.1" id="Layer_1" xmlns="http://www.w3.org/2000/svg" xmlns:xlink="http://www.w3.org/1999/xlink" x="0px" y="0px"
	 width="472px" height="310px" viewBox="0 0 472 310" enable-background="new 0 0 472 310" xml:space="preserve">
<polygon fill="#A6CE38" points="114.124,199.541 114.124,199.541 114.124,157.9 114.124,116.26 114.124,74.62 66.286,74.62 
	66.286,116.26 66.286,157.9 66.286,199.541 114.124,241.182 209.798,241.182 161.96,199.541 "/>
<polygon fill="#A6CE38" points="233.716,74.62 233.716,116.26 233.716,157.9 233.716,199.541 233.716,241.182 281.552,241.182 
	281.552,199.541 281.552,157.9 281.552,116.26 281.552,74.62 "/>
<polygon fill="#A6CE38" points="401.145,199.541 353.309,199.541 353.309,116.26 353.309,74.619 353.309,32.98 305.471,32.98 
	305.471,74.619 305.471,116.26 305.471,199.541 353.309,241.182 401.145,241.182 "/>
<polygon fill="#009345" points="161.96,74.62 161.96,116.26 161.96,157.9 161.96,199.541 209.798,241.182 209.798,199.541 
	209.798,157.9 209.798,116.26 209.798,74.62 "/>
<rect x="233.716" y="12.159" fill="#009345" width="47.836" height="41.64"/>
<polygon fill="#009345" points="377.227,74.62 305.471,74.62 353.309,116.26 377.227,116.26 401.146,116.26 401.146,74.62 "/>
<path fill="#808184" d="M77.242,272.697c-2.794,0-3.934,0.882-3.934,3.565c0,3.567,2.831,3.272,7.133,3.936
	c3.272,0.515,6.397,1.838,6.397,7.5c0,6.545-2.831,9.302-9.633,9.302c-7.059,0-9.302-3.42-9.302-7.979h5.11
	c0.11,2.169,1.066,3.346,4.302,3.346c3.051,0,4.448-1.286,4.448-4.485c0-3.346-3.971-3.346-6.985-3.749
	c-3.199-0.406-6.582-1.987-6.582-7.832c0-5.296,3.235-8.053,9.045-8.053c5.11,0,8.493,1.875,8.972,7.538h-5.111
	C80.956,273.396,79.706,272.697,77.242,272.697"/>
<polygon fill="#808184" points="105.55,273.027 99.704,273.027 99.704,296.706 94.667,296.706 94.667,273.027 88.784,273.027 
	88.784,268.505 105.55,268.505 "/>
<path fill="#808184" d="M124.372,296.705h-5.22l-1.434-5h-7.244l-1.47,5h-5.221l7.832-28.273h5.038L124.372,296.705z
	 M116.431,286.742l-2.354-10.479l-2.353,10.479H116.431z"/>
<path fill="#808184" d="M139.848,296.706l-5.625-9.964h-1.875v9.964h-5.075v-28.312h7.134c6.838,0,10.037,2.501,10.037,8.495v1.47
	c0,4.191-1.471,6.471-4.891,7.574l6.214,10.772H139.848z M134.407,282.072c3.676,0,4.706-1.286,4.706-3.971v-0.956
	c0-2.684-0.699-4.081-4.632-4.081h-2.17v9.008H134.407z"/>
<polygon fill="#808184" points="163.157,273.027 157.311,273.027 157.311,296.706 152.273,296.706 152.273,273.027 146.391,273.027 
	146.391,268.505 163.157,268.505 "/>
<path fill="#808184" d="M179.368,268.432h5.074v19.892c0,5.846-3.566,8.641-9.523,8.641c-5.956,0-9.265-2.795-9.265-8.641v-19.892
	h5.075v19.634c0,2.685,1.176,4.412,4.19,4.412c3.016,0,4.45-1.728,4.45-4.412V268.432z"/>
<path fill="#808184" d="M196.572,268.395c6.837,0,10.037,2.464,10.037,8.457v2.61c0,5.846-3.309,8.567-10.037,8.567h-1.949v8.677
	h-5.186v-28.312H196.572z M196.572,283.139c3.677,0,4.889-1.251,4.889-3.934v-2.096c0-2.685-0.881-4.082-4.816-4.082h-2.059v10.111
	H196.572z"/>
<rect x="218.995" y="268.432" fill="#808184" width="5.111" height="28.312"/>
<polygon fill="#808184" points="239.363,290.015 233.738,278.616 234.326,286.706 234.326,296.705 229.252,296.705 229.252,268.395 
	234.143,268.395 239.914,280.933 245.725,268.395 250.614,268.395 250.614,296.705 245.541,296.705 245.541,286.706 
	246.129,278.616 240.504,290.015 "/>
<polygon fill="#808184" points="265.832,290.015 260.205,278.616 260.794,286.706 260.794,296.705 255.721,296.705 255.721,268.395 
	260.61,268.395 266.383,280.933 272.192,268.395 277.082,268.395 277.082,296.705 272.009,296.705 272.009,286.706 272.598,278.616 
	266.972,290.015 "/>
<polygon fill="#808184" points="298.478,268.395 298.478,272.807 287.263,272.807 287.263,280.087 296.822,280.087 296.822,284.646 
	287.263,284.646 287.263,292.11 298.992,292.11 298.992,296.743 282.189,296.743 282.189,268.395 "/>
<path fill="#808184" d="M315.497,296.706l-5.625-9.964h-1.875v9.964h-5.074v-28.312h7.133c6.838,0,10.038,2.501,10.038,8.495v1.47
	c0,4.191-1.471,6.471-4.891,7.574l6.214,10.772H315.497z M310.056,282.072c3.677,0,4.706-1.286,4.706-3.971v-0.956
	c0-2.684-0.698-4.081-4.632-4.081h-2.17v9.008H310.056z"/>
<path fill="#808184" d="M333.144,272.697c-2.794,0-3.935,0.882-3.935,3.565c0,3.567,2.831,3.272,7.133,3.936
	c3.272,0.515,6.397,1.838,6.397,7.5c0,6.545-2.831,9.302-9.633,9.302c-7.06,0-9.302-3.42-9.302-7.979h5.109
	c0.111,2.169,1.067,3.346,4.303,3.346c3.052,0,4.448-1.286,4.448-4.485c0-3.346-3.97-3.346-6.986-3.749
	c-3.197-0.406-6.58-1.987-6.58-7.832c0-5.296,3.234-8.053,9.045-8.053c5.109,0,8.493,1.875,8.972,7.538h-5.111
	C336.856,273.396,335.606,272.697,333.144,272.697"/>
<rect x="346.964" y="268.432" fill="#808184" width="5.11" height="28.312"/>
<path fill="#808184" d="M356.816,288.507v-11.986c0-5.994,2.61-8.456,9.449-8.456c6.838,0,9.669,2.462,9.669,8.456v11.986
	c0,5.846-2.94,8.456-9.669,8.456C359.536,296.963,356.816,294.353,356.816,288.507 M370.861,288.25v-11.472
	c0-2.574-0.662-4.229-4.596-4.229c-3.677,0-4.377,1.654-4.377,4.229v11.472c0,2.683,0.7,4.229,4.377,4.229
	C369.941,292.479,370.861,290.933,370.861,288.25"/>
<polygon fill="#808184" points="398.58,296.706 393.653,296.706 385.343,278.764 385.785,289.5 385.785,296.706 380.747,296.706 
	380.747,268.432 385.785,268.432 394.094,287.072 393.544,275.123 393.544,268.432 398.58,268.432 "/>
</svg>
