<?xml version="1.0" encoding="utf-8"?>
<!-- Generator: Adobe Illustrator 16.0.0, SVG Export Plug-In . SVG Version: 6.00 Build 0)  -->
<!DOCTYPE svg PUBLIC "-//W3C//DTD SVG 1.1//EN" "http://www.w3.org/Graphics/SVG/1.1/DTD/svg11.dtd">
<svg version="1.1" id="Layer_1" xmlns="http://www.w3.org/2000/svg" xmlns:xlink="http://www.w3.org/1999/xlink" x="0px" y="0px"
	 width="500px" height="320px" viewBox="0 0 500 320" enable-background="new 0 0 500 320" xml:space="preserve">
<polygon fill="#A6CE38" points="116.451,209.506 116.451,209.506 116.451,163.161 116.451,116.814 116.451,70.468 63.208,70.468 
	63.208,116.814 63.208,163.161 63.208,209.506 116.451,255.851 222.938,255.851 169.694,209.506 "/>
<polygon fill="#A6CE38" points="249.557,70.468 249.557,116.814 249.557,163.161 249.557,209.506 249.557,255.851 302.8,255.851 
	302.8,209.506 302.8,163.161 302.8,116.814 302.8,70.468 "/>
<polygon fill="#A6CE38" points="435.906,209.506 382.664,209.506 382.664,116.813 382.664,70.467 382.664,24.123 329.422,24.123 
	329.422,70.467 329.422,116.813 329.422,209.506 382.664,255.851 435.906,255.851 "/>
<polygon fill="#009345" points="169.694,70.468 169.694,116.814 169.694,163.161 169.694,209.506 222.937,255.851 222.937,209.506 
	222.937,163.161 222.937,116.814 222.937,70.468 "/>
<rect x="249.557" y="0.949" fill="#009345" width="53.243" height="46.346"/>
<polygon fill="#009345" points="409.285,70.468 329.422,70.468 382.664,116.814 409.285,116.814 435.907,116.814 435.907,70.468 "/>
<path fill="#808184" d="M75.402,290.929c-3.11,0-4.379,0.982-4.379,3.969c0,3.97,3.151,3.643,7.939,4.38
	c3.642,0.572,7.12,2.046,7.12,8.348c0,7.284-3.15,10.354-10.721,10.354c-7.857,0-10.353-3.807-10.353-8.88h5.688
	c0.123,2.414,1.187,3.724,4.789,3.724c3.396,0,4.951-1.432,4.951-4.992c0-3.724-4.42-3.724-7.775-4.174
	c-3.561-0.451-7.325-2.211-7.325-8.716c0-5.896,3.6-8.963,10.066-8.963c5.688,0,9.453,2.087,9.985,8.389h-5.688
	C79.535,291.706,78.144,290.929,75.402,290.929"/>
<polygon fill="#808184" points="106.908,291.297 100.402,291.297 100.402,317.651 94.795,317.651 94.795,291.297 88.248,291.297 
	88.248,286.262 106.908,286.262 "/>
<path fill="#808184" d="M127.858,317.649h-5.81l-1.596-5.564h-8.062l-1.637,5.564h-5.812l8.717-31.467h5.607L127.858,317.649z
	 M119.02,306.561l-2.62-11.663l-2.619,11.663H119.02z"/>
<path fill="#808184" d="M145.082,317.651l-6.26-11.091h-2.087v11.091h-5.648V286.14h7.94c7.61,0,11.171,2.783,11.171,9.454v1.637
	c0,4.665-1.637,7.203-5.443,8.432l6.916,11.989H145.082z M139.027,301.364c4.091,0,5.238-1.432,5.238-4.42v-1.063
	c0-2.986-0.778-4.544-5.156-4.544h-2.415v10.027H139.027z"/>
<polygon fill="#808184" points="171.025,291.297 164.518,291.297 164.518,317.651 158.912,317.651 158.912,291.297 152.364,291.297 
	152.364,286.262 171.025,286.262 "/>
<path fill="#808184" d="M189.068,286.183h5.648v22.139c0,6.507-3.97,9.616-10.6,9.616s-10.312-3.109-10.312-9.616v-22.139h5.648
	v21.853c0,2.986,1.309,4.91,4.665,4.91c3.356,0,4.952-1.924,4.952-4.91V286.183z"/>
<path fill="#808184" d="M208.216,286.14c7.611,0,11.171,2.743,11.171,9.414v2.905c0,6.506-3.683,9.533-11.171,9.533h-2.169v9.659
	h-5.771V286.14H208.216z M208.216,302.552c4.092,0,5.442-1.393,5.442-4.379v-2.335c0-2.986-0.982-4.541-5.36-4.541h-2.292v11.255
	H208.216z"/>
<rect x="233.173" y="286.183" fill="#808184" width="5.689" height="31.51"/>
<polygon fill="#808184" points="255.844,310.203 249.583,297.517 250.236,306.521 250.236,317.649 244.59,317.649 244.59,286.14 
	250.032,286.14 256.457,300.095 262.923,286.14 268.366,286.14 268.366,317.649 262.719,317.649 262.719,306.521 263.373,297.517 
	257.111,310.203 "/>
<polygon fill="#808184" points="285.302,310.203 279.04,297.517 279.696,306.521 279.696,317.649 274.049,317.649 274.049,286.14 
	279.492,286.14 285.915,300.095 292.381,286.14 297.824,286.14 297.824,317.649 292.177,317.649 292.177,306.521 292.833,297.517 
	286.571,310.203 "/>
<polygon fill="#808184" points="321.638,286.14 321.638,291.051 309.155,291.051 309.155,299.153 319.795,299.153 319.795,304.229 
	309.155,304.229 309.155,312.536 322.21,312.536 322.21,317.692 303.509,317.692 303.509,286.14 "/>
<path fill="#808184" d="M340.58,317.651l-6.26-11.091h-2.088v11.091h-5.648V286.14h7.94c7.61,0,11.172,2.783,11.172,9.454v1.637
	c0,4.665-1.638,7.203-5.443,8.432l6.916,11.989H340.58z M334.524,301.364c4.093,0,5.237-1.432,5.237-4.42v-1.063
	c0-2.986-0.776-4.544-5.155-4.544h-2.415v10.027H334.524z"/>
<path fill="#808184" d="M360.221,290.929c-3.11,0-4.379,0.982-4.379,3.969c0,3.97,3.15,3.643,7.938,4.38
	c3.643,0.572,7.121,2.046,7.121,8.348c0,7.284-3.151,10.354-10.722,10.354c-7.858,0-10.354-3.807-10.354-8.88h5.688
	c0.123,2.414,1.188,3.724,4.789,3.724c3.396,0,4.951-1.432,4.951-4.992c0-3.724-4.419-3.724-7.775-4.174
	c-3.561-0.451-7.325-2.211-7.325-8.716c0-5.896,3.602-8.963,10.067-8.963c5.688,0,9.453,2.087,9.985,8.389h-5.688
	C364.354,291.706,362.963,290.929,360.221,290.929"/>
<rect x="375.604" y="286.183" fill="#808184" width="5.688" height="31.51"/>
<path fill="#808184" d="M386.568,308.524v-13.34c0-6.671,2.905-9.412,10.517-9.412s10.763,2.741,10.763,9.412v13.34
	c0,6.509-3.274,9.413-10.763,9.413C389.596,317.938,386.568,315.033,386.568,308.524 M402.2,308.238v-12.766
	c0-2.867-0.736-4.708-5.115-4.708c-4.092,0-4.869,1.841-4.869,4.708v12.766c0,2.988,0.777,4.707,4.869,4.707
	S402.2,311.227,402.2,308.238"/>
<polygon fill="#808184" points="433.053,317.651 427.568,317.651 418.318,297.682 418.812,309.631 418.812,317.651 413.204,317.651 
	413.204,286.183 418.812,286.183 428.061,306.929 427.446,293.629 427.446,286.183 433.053,286.183 "/>
</svg>
