<?xml version="1.0" encoding="utf-8"?>
<!-- Generator: Adobe Illustrator 16.0.0, SVG Export Plug-In . SVG Version: 6.00 Build 0)  -->
<!DOCTYPE svg PUBLIC "-//W3C//DTD SVG 1.1//EN" "http://www.w3.org/Graphics/SVG/1.1/DTD/svg11.dtd">
<svg version="1.1" id="Layer_1" xmlns="http://www.w3.org/2000/svg" xmlns:xlink="http://www.w3.org/1999/xlink" x="0px" y="0px"
	 width="472px" height="310px" viewBox="0 0 472 310" enable-background="new 0 0 472 310" xml:space="preserve">
<polygon fill="#A6CE38" points="89.817,202.746 89.817,202.746 89.817,158.636 89.817,114.527 89.817,70.419 31.729,70.419 
	31.729,114.527 31.729,158.636 31.729,202.746 89.817,246.854 205.995,246.854 147.907,202.746 "/>
<polygon fill="#A6CE38" points="235.039,70.419 235.039,114.527 235.039,158.636 235.039,202.746 235.039,246.854 293.126,246.854 
	293.126,202.746 293.126,158.636 293.126,114.527 293.126,70.419 "/>
<polygon fill="#A6CE38" points="438.35,202.746 380.261,202.746 380.261,114.527 380.261,70.419 380.261,26.311 322.172,26.311 
	322.172,70.419 322.172,114.527 322.172,202.746 380.261,246.854 438.35,246.854 "/>
<polygon fill="#009345" points="147.907,70.419 147.907,114.527 147.907,158.636 147.907,202.746 205.995,246.854 205.995,202.746 
	205.995,158.636 205.995,114.527 205.995,70.419 "/>
<rect x="235.039" y="4.256" fill="#009345" width="58.087" height="44.109"/>
<polygon fill="#009345" points="409.305,70.419 322.172,70.419 380.261,114.527 409.305,114.527 438.35,114.527 438.35,70.419 "/>
<path fill="#808184" d="M45.032,280.237c-3.393,0-4.777,0.936-4.777,3.776c0,3.779,3.438,3.468,8.661,4.17
	c3.974,0.543,7.768,1.946,7.768,7.942c0,6.935-3.438,9.854-11.697,9.854c-8.572,0-11.295-3.622-11.295-8.45h6.205
	c0.134,2.297,1.295,3.544,5.224,3.544c3.706,0,5.402-1.364,5.402-4.751c0-3.544-4.822-3.544-8.483-3.973
	c-3.884-0.429-7.991-2.104-7.991-8.296c0-5.608,3.928-8.528,10.982-8.528c6.206,0,10.313,1.985,10.895,7.982H49.72
	C49.542,280.978,48.023,280.237,45.032,280.237"/>
<polygon fill="#808184" points="79.406,280.589 72.308,280.589 72.308,305.671 66.191,305.671 66.191,280.589 59.047,280.589 
	59.047,275.798 79.406,275.798 "/>
<path fill="#808184" d="M102.263,305.671h-6.339l-1.741-5.299h-8.796l-1.786,5.299h-6.34l9.51-29.95h6.117L102.263,305.671z
	 M92.62,295.116l-2.857-11.103l-2.858,11.103H92.62z"/>
<path fill="#808184" d="M121.055,305.671l-6.83-10.555h-2.277v10.555h-6.163v-29.99h8.663c8.304,0,12.189,2.648,12.189,8.997v1.556
	c0,4.441-1.786,6.856-5.938,8.025l7.545,11.412H121.055z M114.448,290.17c4.464,0,5.715-1.364,5.715-4.206v-1.014
	c0-2.844-0.849-4.323-5.625-4.323h-2.635v9.543H114.448z"/>
<polygon fill="#808184" points="149.358,280.589 142.26,280.589 142.26,305.671 136.143,305.671 136.143,280.589 129,280.589 
	129,275.798 149.358,275.798 "/>
<path fill="#808184" d="M169.044,275.721h6.162v21.069c0,6.192-4.332,9.152-11.565,9.152c-7.232,0-11.25-2.96-11.25-9.152v-21.069
	h6.162v20.798c0,2.842,1.428,4.673,5.089,4.673c3.662,0,5.403-1.831,5.403-4.673V275.721z"/>
<path fill="#808184" d="M189.936,275.681c8.303,0,12.187,2.608,12.187,8.957v2.767c0,6.19-4.017,9.074-12.187,9.074h-2.367v9.192
	h-6.295v-29.99H189.936z M189.936,291.299c4.464,0,5.938-1.326,5.938-4.168v-2.22c0-2.843-1.071-4.322-5.849-4.322h-2.501v10.71
	H189.936z"/>
<rect x="217.165" y="275.721" fill="#808184" width="6.206" height="29.988"/>
<polygon fill="#808184" points="241.897,298.581 235.067,286.507 235.78,295.076 235.78,305.671 229.619,305.671 229.619,275.681 
	235.558,275.681 242.566,288.962 249.62,275.681 255.559,275.681 255.559,305.671 249.399,305.671 249.399,295.076 250.113,286.507 
	243.282,298.581 "/>
<polygon fill="#808184" points="274.039,298.581 267.206,286.507 267.921,295.076 267.921,305.671 261.76,305.671 261.76,275.681 
	267.697,275.681 274.706,288.962 281.762,275.681 287.7,275.681 287.7,305.671 281.538,305.671 281.538,295.076 282.252,286.507 
	275.421,298.581 "/>
<polygon fill="#808184" points="313.68,275.681 313.68,280.354 300.062,280.354 300.062,288.064 311.672,288.064 311.672,292.896 
	300.062,292.896 300.062,300.803 314.304,300.803 314.304,305.709 293.901,305.709 293.901,275.681 "/>
<path fill="#808184" d="M334.346,305.671l-6.829-10.555h-2.277v10.555h-6.162v-29.99h8.663c8.303,0,12.188,2.648,12.188,8.997v1.556
	c0,4.441-1.787,6.856-5.939,8.025l7.546,11.412H334.346z M327.74,290.17c4.466,0,5.714-1.364,5.714-4.206v-1.014
	c0-2.844-0.849-4.323-5.624-4.323h-2.637v9.543H327.74z"/>
<path fill="#808184" d="M355.774,280.237c-3.394,0-4.776,0.936-4.776,3.776c0,3.779,3.438,3.468,8.66,4.17
	c3.975,0.543,7.77,1.946,7.77,7.942c0,6.935-3.438,9.854-11.697,9.854c-8.572,0-11.296-3.622-11.296-8.45h6.204
	c0.134,2.297,1.296,3.544,5.225,3.544c3.705,0,5.403-1.364,5.403-4.751c0-3.544-4.823-3.544-8.483-3.973
	c-3.884-0.429-7.992-2.104-7.992-8.296c0-5.608,3.93-8.528,10.983-8.528c6.205,0,10.313,1.985,10.896,7.982h-6.207
	C360.284,280.978,358.766,280.237,355.774,280.237"/>
<rect x="372.557" y="275.721" fill="#808184" width="6.207" height="29.988"/>
<path fill="#808184" d="M384.521,296.985V284.29c0-6.352,3.17-8.959,11.475-8.959c8.304,0,11.741,2.607,11.741,8.959v12.695
	c0,6.192-3.57,8.957-11.741,8.957S384.521,303.178,384.521,296.985 M401.575,296.712v-12.15c0-2.727-0.803-4.478-5.58-4.478
	c-4.465,0-5.313,1.751-5.313,4.478v12.15c0,2.843,0.849,4.479,5.313,4.479C400.459,301.191,401.575,299.555,401.575,296.712"/>
<polygon fill="#808184" points="435.234,305.671 429.253,305.671 419.162,286.664 419.698,298.036 419.698,305.671 413.581,305.671 
	413.581,275.721 419.698,275.721 429.789,295.466 429.119,282.809 429.119,275.721 435.234,275.721 "/>
</svg>
