<?xml version="1.0" encoding="utf-8"?>
<!-- Generator: Adobe Illustrator 16.0.0, SVG Export Plug-In . SVG Version: 6.00 Build 0)  -->
<!DOCTYPE svg PUBLIC "-//W3C//DTD SVG 1.1//EN" "http://www.w3.org/Graphics/SVG/1.1/DTD/svg11.dtd">
<svg version="1.1" id="Layer_1" xmlns="http://www.w3.org/2000/svg" xmlns:xlink="http://www.w3.org/1999/xlink" x="0px" y="0px"
	 width="1260px" height="828px" viewBox="0 0 1260 828" enable-background="new 0 0 1260 828" xml:space="preserve">
<polygon fill="#A7CE38" points="444.751,483.645 444.751,483.645 444.751,419.144 444.751,354.643 444.751,290.142 370.651,290.142 
	370.651,354.643 370.651,419.144 370.651,483.645 444.751,548.146 592.951,548.146 518.852,483.645 "/>
<polygon fill="#A7CE38" points="630,290.142 630,354.643 630,419.144 630,483.645 630,548.146 704.1,548.146 704.1,483.645 
	704.1,419.144 704.1,354.643 704.1,290.142 "/>
<polygon fill="#A7CE38" points="889.349,483.645 815.25,483.645 815.25,354.642 815.25,290.141 815.25,225.641 741.15,225.641 
	741.15,290.141 741.15,354.642 741.15,483.645 815.25,548.146 889.349,548.146 "/>
<polygon fill="#009444" points="518.852,290.142 518.852,354.643 518.852,419.144 518.852,483.645 592.951,548.146 592.951,483.645 
	592.951,419.144 592.951,354.643 592.951,290.142 "/>
<rect x="630" y="193.39" fill="#009444" width="74.1" height="64.501"/>
<polygon fill="#009444" points="852.299,290.142 741.15,290.142 815.249,354.643 852.299,354.643 889.35,354.643 889.35,290.142 "/>
<g>
	<defs>
		<rect id="SVGID_1_" width="1260" height="828"/>
	</defs>
	<clipPath id="SVGID_2_">
		<use xlink:href="#SVGID_1_"  overflow="visible"/>
	</clipPath>
	<path clip-path="url(#SVGID_2_)" fill="#808285" d="M387.622,596.964c-4.328,0-6.094,1.367-6.094,5.523
		c0,5.525,4.385,5.069,11.049,6.096c5.069,0.797,9.909,2.847,9.909,11.617c0,10.139-4.385,14.409-14.921,14.409
		c-10.935,0-14.409-5.297-14.409-12.358h7.916c0.171,3.36,1.652,5.183,6.664,5.183c4.727,0,6.891-1.993,6.891-6.948
		c0-5.183-6.151-5.183-10.821-5.809c-4.955-0.627-10.194-3.076-10.194-12.131c0-8.202,5.011-12.474,14.01-12.474
		c7.916,0,13.156,2.904,13.897,11.676h-7.917C393.374,598.046,391.438,596.964,387.622,596.964"/>
	<polygon clip-path="url(#SVGID_2_)" fill="#808285" points="431.471,597.477 422.416,597.477 422.416,634.154 414.612,634.154 
		414.612,597.477 405.5,597.477 405.5,590.471 431.471,590.471 	"/>
	<path clip-path="url(#SVGID_2_)" fill="#808285" d="M460.627,634.153h-8.086l-2.222-7.745h-11.22l-2.278,7.745h-8.087
		l12.131-43.796h7.803L460.627,634.153z M448.326,618.72l-3.645-16.232l-3.645,16.232H448.326z"/>
	<path clip-path="url(#SVGID_2_)" fill="#808285" d="M484.599,634.154l-8.713-15.435h-2.905v15.435h-7.86V590.3h11.05
		c10.592,0,15.548,3.873,15.548,13.157v2.277c0,6.492-2.278,10.023-7.575,11.732l9.625,16.688H484.599z M476.171,611.486
		c5.695,0,7.29-1.992,7.29-6.15v-1.481c0-4.156-1.083-6.321-7.176-6.321h-3.361v13.953H476.171z"/>
	<polygon clip-path="url(#SVGID_2_)" fill="#808285" points="520.704,597.477 511.648,597.477 511.648,634.154 503.845,634.154 
		503.845,597.477 494.733,597.477 494.733,590.471 520.704,590.471 	"/>
	<path clip-path="url(#SVGID_2_)" fill="#808285" d="M545.815,590.357h7.86v30.812c0,9.056-5.525,13.385-14.752,13.385
		c-9.226,0-14.352-4.329-14.352-13.385v-30.812h7.86v30.413c0,4.157,1.822,6.834,6.492,6.834c4.671,0,6.892-2.677,6.892-6.834
		V590.357z"/>
	<path clip-path="url(#SVGID_2_)" fill="#808285" d="M572.465,590.3c10.592,0,15.547,3.815,15.547,13.1v4.043
		c0,9.056-5.125,13.271-15.547,13.271h-3.019v13.441h-8.031V590.3H572.465z M572.465,613.139c5.695,0,7.574-1.938,7.574-6.094
		v-3.247c0-4.157-1.367-6.321-7.46-6.321h-3.19v15.662H572.465z"/>
	<rect x="607.198" y="590.357" clip-path="url(#SVGID_2_)" fill="#808285" width="7.917" height="43.854"/>
	<polygon clip-path="url(#SVGID_2_)" fill="#808285" points="638.749,623.789 630.035,606.133 630.946,618.663 630.946,634.153 
		623.087,634.153 623.087,590.3 630.662,590.3 639.603,609.721 648.602,590.3 656.177,590.3 656.177,634.153 648.317,634.153 
		648.317,618.663 649.229,606.133 640.515,623.789 	"/>
	<polygon clip-path="url(#SVGID_2_)" fill="#808285" points="679.748,623.789 671.033,606.133 671.945,618.663 671.945,634.153 
		664.086,634.153 664.086,590.3 671.66,590.3 680.602,609.721 689.601,590.3 697.176,590.3 697.176,634.153 689.316,634.153 
		689.316,618.663 690.228,606.133 681.514,623.789 	"/>
	<polygon clip-path="url(#SVGID_2_)" fill="#808285" points="730.316,590.3 730.316,597.134 712.945,597.134 712.945,608.411 
		727.754,608.411 727.754,615.473 712.945,615.473 712.945,627.035 731.113,627.035 731.113,634.211 705.086,634.211 705.086,590.3 
			"/>
	<path clip-path="url(#SVGID_2_)" fill="#808285" d="M756.68,634.154l-8.713-15.435h-2.905v15.435h-7.859V590.3h11.049
		c10.593,0,15.549,3.873,15.549,13.157v2.277c0,6.492-2.278,10.023-7.575,11.732l9.625,16.688H756.68z M748.251,611.486
		c5.696,0,7.29-1.992,7.29-6.15v-1.481c0-4.156-1.082-6.321-7.175-6.321h-3.361v13.953H748.251z"/>
	<path clip-path="url(#SVGID_2_)" fill="#808285" d="M784.014,596.964c-4.328,0-6.094,1.367-6.094,5.523
		c0,5.525,4.385,5.069,11.049,6.096c5.069,0.797,9.909,2.847,9.909,11.617c0,10.139-4.385,14.409-14.921,14.409
		c-10.936,0-14.409-5.297-14.409-12.358h7.916c0.171,3.36,1.652,5.183,6.664,5.183c4.727,0,6.891-1.993,6.891-6.948
		c0-5.183-6.15-5.183-10.821-5.809c-4.954-0.627-10.193-3.076-10.193-12.131c0-8.202,5.011-12.474,14.01-12.474
		c7.916,0,13.156,2.904,13.897,11.676h-7.917C789.766,598.046,787.83,596.964,784.014,596.964"/>
	<rect x="805.422" y="590.357" clip-path="url(#SVGID_2_)" fill="#808285" width="7.917" height="43.854"/>
	<path clip-path="url(#SVGID_2_)" fill="#808285" d="M820.684,621.453v-18.566c0-9.284,4.043-13.099,14.637-13.099
		c10.593,0,14.979,3.814,14.979,13.099v18.566c0,9.056-4.557,13.1-14.979,13.1C824.897,634.553,820.684,630.509,820.684,621.453
		 M842.439,621.055v-17.769c0-3.987-1.025-6.55-7.119-6.55c-5.695,0-6.778,2.562-6.778,6.55v17.769c0,4.157,1.083,6.551,6.778,6.551
		C841.015,627.605,842.439,625.212,842.439,621.055"/>
	<polygon clip-path="url(#SVGID_2_)" fill="#808285" points="885.376,634.154 877.744,634.154 864.872,606.361 865.558,622.991 
		865.558,634.154 857.753,634.154 857.753,590.357 865.558,590.357 878.428,619.232 877.574,600.723 877.574,590.357 
		885.376,590.357 	"/>
</g>
</svg>
